# xmcd
#
# Track frame offsets:
#	150
#	13842
#	28489
#	47013
#	64690
#	88229
#	110269
#	122787
#	136657
#	151841
#	173992
#	188474
#	202998
#
# Disc length: 3029 seconds
#
# Revision: 1
# Processed by: cddbd v1.4PL0 Copyright (c) Steve Scherf et al.
# Submitted via: EasyCDDAExtractor 5.0.6
#
DISCID=a90bd30d
DTITLE=Various Artist - A Prairie Ceilidh Christmas
DYEAR=1900
DGENRE=
TTITLE0=Ceilidh - The Gloustershire Wassail
TTITLE1=Masters in This Hall
TTITLE2=Baloo Loo, Lammy
TTITLE3=Noel Nouvelet
TTITLE4=Wexford Carol
TTITLE5=The Wren
TTITLE6=Christmas for Cowboys
TTITLE7=The Darkest Midnight in December
TTITLE8=The Huron Corol
TTITLE9=The Winter Wish (For Sarah)
TTITLE10=God Rest Ye Merry Gentlemen
TTITLE11=Nummers Song
TTITLE12=The Old Yeare Now Away is Fled
EXTD=
EXTT0=
EXTT1=
EXTT2=
EXTT3=
EXTT4=
EXTT5=
EXTT6=
EXTT7=
EXTT8=
EXTT9=
EXTT10=
EXTT11=
EXTT12=
PLAYORDER=
